<svg xmlns="http://www.w3.org/2000/svg" width="192" height="192" viewBox="0 0 192 192">
  <rect width="192" height="192" rx="42" fill="#2563eb"/>
  <path fill="#ffffff" d="M96 40c-30.9 0-56 21.5-56 48 0 14.7 7.7 27.8 19.8 36.6-1 9.6-5.1 18.1-11.4 24.4-1.3 1.3-.4 3.5 1.5 3.4 13.4-.8 24.6-5.4 32.6-11.3 4.3.9 8.8 1.4 13.5 1.4 30.9 0 56-21.5 56-48s-25.1-48-56-48z"/>
  <circle cx="74" cy="88" r="8" fill="#2563eb"/>
  <circle cx="96" cy="88" r="8" fill="#2563eb"/>
  <circle cx="118" cy="88" r="8" fill="#2563eb"/>
</svg>
